<svg xmlns="http://www.w3.org/2000/svg" x="0px" y="0px" viewBox="6.673321723937988 6.605199813842773 34.65335464477539 34.789695739746094" enable-background="new 0 0 48 48">
<g>
	
		<path fill="#FFFFFF" stroke="#000000" stroke-width="1" stroke-linecap="round" stroke-linejoin="round" stroke-miterlimit="10" d="   M20.4852,8.3967c2.0385-1.722,4.9911-1.722,7.0296,0c2.6686,2.2543,5.9616,5.8082,6.4549,9.9164   c0.3302,2.7497-0.2136,4.6386-0.9117,5.8846c-0.7129,1.2724-0.266,2.8747,1.0528,3.4977l1.302,0.6151   c3.0752,1.4528,5.133,4.5109,5.367,7.976l0.0381,0.5644c0.1477,2.188-1.5872,4.044-3.7802,4.044H10.9623   c-2.1929,0-3.9279-1.856-3.7802-4.044l0.0381-0.5644c0.2339-3.4651,2.2918-6.5232,5.367-7.976l1.302-0.6151   c1.3188-0.623,1.7656-2.2253,1.0528-3.4977c-0.6981-1.246-1.2419-3.1349-0.9117-5.8846   C14.5236,14.2049,17.8166,10.651,20.4852,8.3967z"/>
</g>
<g>
	<path fill="none" stroke="#536DFE" stroke-width="1" stroke-linecap="round" stroke-linejoin="round" stroke-miterlimit="10" d="   M23.453,30.3042c0.3586,0.1202,0.7354,0.1202,1.094,0c0.8976-0.3008,2.7536-1.1668,4.4559-3.4993   c1.6296-2.233,1.8962-5.2949,1.906-6.9682c0.0042-0.718-0.4282-1.3635-1.0976-1.6233l-5.1893-2.0139   c-0.4001-0.1553-0.8439-0.1553-1.244,0l-5.1893,2.0139c-0.6693,0.2598-1.1017,0.9053-1.0976,1.6233   c0.0097,1.6733,0.2763,4.7352,1.906,6.9682C20.6994,29.1375,22.5554,30.0035,23.453,30.3042z"/>
	<path fill="none" stroke="#536DFE" stroke-width="1" stroke-linecap="round" stroke-linejoin="round" stroke-miterlimit="10" d="   M21.6933,25.1533L21.6933,25.1533c0.7385,0,1.4467-0.2934,1.9689-0.8155L24,24l0.281,0.281   c0.5222,0.5222,1.2304,0.8155,1.9689,0.8155h0.0568"/>
	
		<line fill="none" stroke="#536DFE" stroke-width="1" stroke-linecap="round" stroke-linejoin="round" stroke-miterlimit="10" x1="20.5" y1="20.8267" x2="21.5" y2="20.8267"/>
	
		<line fill="none" stroke="#536DFE" stroke-width="1" stroke-linecap="round" stroke-linejoin="round" stroke-miterlimit="10" x1="26.5" y1="20.8153" x2="27.5" y2="20.8153"/>
	<path fill="none" stroke="#536DFE" stroke-width="1" stroke-linecap="round" stroke-linejoin="round" stroke-miterlimit="10" d="   M32.9536,34.3267H15.0464c-1.4053,0-2.9337,1.1979-2.8271,2.3318l0.2748,2.9214c0.0743,0.7902,0.7191,1.315,1.6586,1.315h19.6947   c0.9395,0,1.5843-0.5248,1.6586-1.315l0.2748-2.9214C35.8873,35.5246,34.359,34.3267,32.9536,34.3267z"/>
</g>
</svg>