<svg xmlns="http://www.w3.org/2000/svg" xmlns:xlink="http://www.w3.org/1999/xlink" width="500" zoomAndPan="magnify" viewBox="0 0 375 374.999991" height="500" preserveAspectRatio="xMidYMid meet" version="1.0"><defs><g/></defs><rect x="-37.5" width="450" fill="#ffffff" y="-37.499999" height="449.999989" fill-opacity="1"/><rect x="-37.5" width="450" fill="#132c52" y="-37.499999" height="449.999989" fill-opacity="1"/><g fill="#ffffff" fill-opacity="1"><g transform="translate(66.831533, 184.678801)"><g><path d="M 27.171875 -7.046875 C 25.785156 -5.484375 24.378906 -4.25 22.953125 -3.34375 C 21.523438 -2.445312 19.9375 -2 18.1875 -2 C 17.8125 -2 17.300781 -2.046875 16.65625 -2.140625 L 15.28125 -2.078125 C 9.46875 -2.023438 5.226562 -4.789062 2.5625 -10.375 C 1.957031 -11.65625 1.65625 -13.195312 1.65625 -15 C 1.65625 -16.5625 1.882812 -18.054688 2.34375 -19.484375 C 2.8125 -20.921875 3.457031 -22.097656 4.28125 -23.015625 L 5.59375 -24.609375 C 6.238281 -25.441406 6.75 -26.019531 7.125 -26.34375 C 8.738281 -27.90625 10.878906 -28.6875 13.546875 -28.6875 C 14.929688 -28.6875 16.289062 -28.453125 17.625 -27.984375 C 18.957031 -27.523438 20.132812 -26.90625 21.15625 -26.125 C 21.332031 -25.988281 21.515625 -25.703125 21.703125 -25.265625 C 21.890625 -24.828125 21.984375 -24.46875 21.984375 -24.1875 C 21.984375 -23.820312 21.707031 -23.421875 21.15625 -22.984375 C 20.601562 -22.546875 20.09375 -22.347656 19.625 -22.390625 C 16.5 -22.765625 13.988281 -22.015625 12.09375 -20.140625 C 10.207031 -18.273438 9.265625 -15.734375 9.265625 -12.515625 C 9.265625 -10.390625 9.710938 -8.890625 10.609375 -8.015625 C 11.503906 -7.140625 12.988281 -6.703125 15.0625 -6.703125 C 16.351562 -6.703125 17.578125 -6.96875 18.734375 -7.5 C 19.890625 -8.03125 21.222656 -8.78125 22.734375 -9.75 L 24.0625 -10.578125 C 24.519531 -10.804688 25.128906 -10.953125 25.890625 -11.015625 C 26.648438 -11.085938 27.238281 -11.148438 27.65625 -11.203125 C 27.601562 -10.785156 27.585938 -10.378906 27.609375 -9.984375 C 27.640625 -9.597656 27.65625 -9.289062 27.65625 -9.0625 C 27.65625 -8.039062 27.492188 -7.367188 27.171875 -7.046875 Z M 27.171875 -7.046875 "/></g></g></g><g fill="#ffffff" fill-opacity="1"><g transform="translate(117.981249, 184.678801)"><g><path d="M 9.953125 -32.21875 C 9.859375 -31.9375 9.523438 -31.632812 8.953125 -31.3125 C 8.378906 -30.988281 7.90625 -30.691406 7.53125 -30.421875 L 5.59375 -31.453125 C 3.707031 -32.460938 2.421875 -33.269531 1.734375 -33.875 C 1.359375 -34.144531 1.171875 -34.488281 1.171875 -34.90625 C 1.171875 -35.1875 1.273438 -35.425781 1.484375 -35.625 C 1.691406 -35.832031 2.003906 -35.9375 2.421875 -35.9375 C 4.210938 -35.9375 6.398438 -35.476562 8.984375 -34.5625 C 9.265625 -34.519531 9.519531 -34.207031 9.75 -33.625 C 9.976562 -33.050781 10.046875 -32.582031 9.953125 -32.21875 Z M 3.734375 -19.359375 C 3.867188 -19.953125 3.957031 -20.382812 4 -20.65625 C 4.050781 -20.9375 4.078125 -21.238281 4.078125 -21.5625 C 4.078125 -22.207031 4.269531 -22.710938 4.65625 -23.078125 C 5.050781 -23.453125 5.800781 -23.640625 6.90625 -23.640625 C 8.195312 -23.640625 9.335938 -23.234375 10.328125 -22.421875 C 11.328125 -21.617188 11.941406 -20.570312 12.171875 -19.28125 C 12.304688 -18.632812 12.394531 -17.921875 12.4375 -17.140625 C 12.488281 -16.359375 12.515625 -15.851562 12.515625 -15.625 L 13.484375 -3.796875 C 13.617188 -2.554688 13.441406 -1.601562 12.953125 -0.9375 C 12.472656 -0.269531 11.566406 0.0625 10.234375 0.0625 C 9.078125 0.0625 8.09375 -0.253906 7.28125 -0.890625 C 6.476562 -1.535156 5.988281 -2.367188 5.8125 -3.390625 L 4.015625 -18.046875 Z M 3.734375 -19.359375 "/></g></g></g><g fill="#ffffff" fill-opacity="1"><g transform="translate(154.619742, 184.678801)"><g><path d="M 29.71875 -8.09375 C 29.8125 -7.300781 30.160156 -6.285156 30.765625 -5.046875 C 30.859375 -4.816406 30.960938 -4.5625 31.078125 -4.28125 C 31.191406 -4.007812 31.316406 -3.6875 31.453125 -3.3125 C 29.890625 -2.4375 28.644531 -2 27.71875 -2 C 27.03125 -2 26.382812 -2.21875 25.78125 -2.65625 C 25.1875 -3.09375 24.519531 -3.796875 23.78125 -4.765625 C 23.226562 -5.410156 22.765625 -5.734375 22.390625 -5.734375 C 22.023438 -5.734375 21.632812 -5.4375 21.21875 -4.84375 C 20.300781 -3.457031 19.160156 -2.414062 17.796875 -1.71875 C 16.441406 -1.03125 15.003906 -0.6875 13.484375 -0.6875 C 11.773438 -0.6875 10.125 -1.085938 8.53125 -1.890625 C 6.945312 -2.703125 5.71875 -3.800781 4.84375 -5.1875 C 3.914062 -6.613281 3.453125 -8.734375 3.453125 -11.546875 C 3.453125 -13.566406 3.726562 -15.613281 4.28125 -17.6875 C 4.832031 -19.769531 5.617188 -21.476562 6.640625 -22.8125 C 7.742188 -24.332031 9.054688 -25.539062 10.578125 -26.4375 C 12.097656 -27.332031 13.78125 -27.78125 15.625 -27.78125 C 16.21875 -27.78125 16.675781 -27.757812 17 -27.71875 C 17.144531 -27.675781 17.351562 -27.65625 17.625 -27.65625 C 18.6875 -27.65625 19.21875 -28.160156 19.21875 -29.171875 L 19.140625 -29.71875 C 18.503906 -35.019531 17.929688 -38.914062 17.421875 -41.40625 C 17.367188 -41.632812 17.296875 -42 17.203125 -42.5 C 17.117188 -43.007812 17.078125 -43.425781 17.078125 -43.75 C 17.078125 -44.394531 17.210938 -44.957031 17.484375 -45.4375 C 17.765625 -45.925781 18.25 -46.332031 18.9375 -46.65625 C 19.21875 -46.789062 19.539062 -46.859375 19.90625 -46.859375 C 20.875 -46.859375 21.890625 -46.546875 22.953125 -45.921875 C 24.015625 -45.304688 24.632812 -44.609375 24.8125 -43.828125 C 25.507812 -40.972656 26.15625 -37.265625 26.75 -32.703125 L 28 -22.1875 C 28.738281 -15.914062 29.3125 -11.21875 29.71875 -8.09375 Z M 11.265625 -16.734375 C 10.484375 -14.472656 10.09375 -12.394531 10.09375 -10.5 C 10.09375 -7.875 11.015625 -5.941406 12.859375 -4.703125 C 13.597656 -5.117188 14.1875 -5.585938 14.625 -6.109375 C 15.0625 -6.640625 15.578125 -7.414062 16.171875 -8.4375 L 16.9375 -9.75 C 18 -11.269531 18.703125 -12.972656 19.046875 -14.859375 C 19.390625 -16.753906 19.609375 -19.148438 19.703125 -22.046875 C 19.742188 -22.460938 19.660156 -22.9375 19.453125 -23.46875 C 19.242188 -24 19.023438 -24.285156 18.796875 -24.328125 C 18.429688 -24.421875 17.8125 -24.316406 16.9375 -24.015625 C 16.0625 -23.722656 15.507812 -23.414062 15.28125 -23.09375 C 14.21875 -21.84375 13.375 -20.753906 12.75 -19.828125 C 12.132812 -18.910156 11.640625 -17.878906 11.265625 -16.734375 Z M 11.265625 -16.734375 "/></g></g></g><g fill="#ffffff" fill-opacity="1"><g transform="translate(210.261043, 184.678801)"><g><path d="M 16.03125 -10.78125 C 15.570312 -10.507812 14.90625 -10.375 14.03125 -10.375 C 13.707031 -10.375 13.316406 -10.394531 12.859375 -10.4375 C 12.398438 -10.476562 12.007812 -10.476562 11.6875 -10.4375 C 12.050781 -8.914062 12.921875 -7.679688 14.296875 -6.734375 C 15.679688 -5.796875 17.226562 -5.328125 18.9375 -5.328125 C 20.414062 -5.328125 21.726562 -5.648438 22.875 -6.296875 C 24.582031 -7.171875 26.054688 -8.207031 27.296875 -9.40625 C 28.179688 -10.28125 29.015625 -10.71875 29.796875 -10.71875 C 30.296875 -10.71875 30.734375 -10.460938 31.109375 -9.953125 C 31.472656 -9.359375 31.65625 -8.617188 31.65625 -7.734375 C 31.65625 -6.816406 31.472656 -6.101562 31.109375 -5.59375 C 29.910156 -3.75 28.351562 -2.484375 26.4375 -1.796875 C 24.53125 -1.109375 22.304688 -0.765625 19.765625 -0.765625 C 17.140625 -0.765625 14.601562 -1.335938 12.15625 -2.484375 C 9.71875 -3.640625 7.632812 -5.21875 5.90625 -7.21875 C 4.175781 -9.226562 3.035156 -11.453125 2.484375 -13.890625 C 2.117188 -15.316406 1.9375 -16.722656 1.9375 -18.109375 C 1.9375 -20.273438 2.546875 -22.023438 3.765625 -23.359375 C 4.984375 -24.703125 6.953125 -25.972656 9.671875 -27.171875 C 12.160156 -28.222656 14.46875 -28.75 16.59375 -28.75 C 18.113281 -28.75 19.585938 -28.519531 21.015625 -28.0625 C 25.441406 -26.675781 27.65625 -24.785156 27.65625 -22.390625 C 27.65625 -20.867188 26.753906 -19.023438 24.953125 -16.859375 C 24.078125 -15.847656 23.039062 -14.953125 21.84375 -14.171875 C 20.644531 -13.390625 19.476562 -12.6875 18.34375 -12.0625 C 17.21875 -11.4375 16.445312 -11.007812 16.03125 -10.78125 Z M 18.9375 -23.578125 C 18.894531 -23.804688 18.722656 -24 18.421875 -24.15625 C 18.117188 -24.320312 17.945312 -24.425781 17.90625 -24.46875 C 16.65625 -24.5625 15.382812 -24.203125 14.09375 -23.390625 C 12.8125 -22.585938 11.742188 -21.5625 10.890625 -20.3125 C 10.035156 -19.070312 9.609375 -17.878906 9.609375 -16.734375 L 9.671875 -16.171875 C 9.722656 -15.992188 9.96875 -15.765625 10.40625 -15.484375 C 10.84375 -15.203125 11.109375 -15.109375 11.203125 -15.203125 C 14.472656 -17.648438 16.9375 -19.609375 18.59375 -21.078125 C 18.875 -21.359375 19.015625 -21.867188 19.015625 -22.609375 C 19.015625 -23.066406 18.988281 -23.390625 18.9375 -23.578125 Z M 18.9375 -23.578125 "/></g></g></g><g fill="#ffffff" fill-opacity="1"><g transform="translate(263.345591, 184.678801)"><g><path d="M 14.171875 -15.140625 C 14.359375 -14.765625 14.566406 -14.164062 14.796875 -13.34375 C 15.296875 -11.769531 15.59375 -10.894531 15.6875 -10.71875 C 16.65625 -12.46875 17.554688 -14.195312 18.390625 -15.90625 C 19.722656 -18.664062 20.757812 -20.597656 21.5 -21.703125 C 22.832031 -23.734375 24.421875 -25.53125 26.265625 -27.09375 C 26.640625 -27.46875 27.078125 -27.65625 27.578125 -27.65625 C 28.035156 -27.65625 28.414062 -27.46875 28.71875 -27.09375 C 29.019531 -26.726562 29.21875 -26.269531 29.3125 -25.71875 C 29.351562 -25.53125 29.375 -25.226562 29.375 -24.8125 C 29.375 -23.800781 29.191406 -22.789062 28.828125 -21.78125 C 28.128906 -19.976562 26.421875 -15.578125 23.703125 -8.578125 L 20.734375 -0.90625 C 20.316406 0.25 19.660156 1.140625 18.765625 1.765625 C 17.867188 2.390625 16.914062 2.703125 15.90625 2.703125 C 14.382812 2.703125 13.046875 2.054688 11.890625 0.765625 C 11.203125 -0.0664062 10.488281 -1.5 9.75 -3.53125 C 7.625 -10.019531 5.847656 -15.59375 4.421875 -20.25 C 4.285156 -20.625 4.085938 -21.097656 3.828125 -21.671875 C 3.578125 -22.242188 3.453125 -22.71875 3.453125 -23.09375 C 3.453125 -23.738281 3.800781 -24.3125 4.5 -24.8125 C 5.1875 -25.320312 5.921875 -25.578125 6.703125 -25.578125 C 7.578125 -25.578125 8.660156 -25.140625 9.953125 -24.265625 C 10.878906 -23.566406 11.546875 -22.78125 11.953125 -21.90625 C 12.367188 -21.03125 12.765625 -19.878906 13.140625 -18.453125 C 13.503906 -16.984375 13.847656 -15.878906 14.171875 -15.140625 Z M 14.171875 -15.140625 "/></g></g></g></svg>